<svg width="176" height="176" viewBox="0 0 176 176" fill="none" xmlns="http://www.w3.org/2000/svg">
<mask id="path-1-outside-1_1923_3396" maskUnits="userSpaceOnUse" x="0" y="0" width="176" height="176" fill="black">
<rect fill="white" width="176" height="176"/>
<path d="M173 88C173 134.944 134.944 173 88 173C41.0558 173 3 134.944 3 88C3 41.0558 41.0558 3 88 3C134.944 3 173 41.0558 173 88ZM9.52419 88C9.52419 131.341 44.659 166.476 88 166.476C131.341 166.476 166.476 131.341 166.476 88C166.476 44.659 131.341 9.52419 88 9.52419C44.659 9.52419 9.52419 44.659 9.52419 88Z"/>
</mask>
<path d="M173 88C173 134.944 134.944 173 88 173C41.0558 173 3 134.944 3 88C3 41.0558 41.0558 3 88 3C134.944 3 173 41.0558 173 88ZM9.52419 88C9.52419 131.341 44.659 166.476 88 166.476C131.341 166.476 166.476 131.341 166.476 88C166.476 44.659 131.341 9.52419 88 9.52419C44.659 9.52419 9.52419 44.659 9.52419 88Z" stroke="#00B6FF" stroke-opacity="0.2" stroke-width="6" mask="url(#path-1-outside-1_1923_3396)"/>
<path d="M59.7009 14.8195C48.5412 19.135 38.5163 25.9456 30.393 34.7304C22.2696 43.5153 16.263 54.0416 12.8325 65.5043C9.40207 76.9671 8.63862 89.0625 10.6006 100.866C12.5626 112.669 17.198 123.867 24.1523 133.603L29.053 130.103C22.6324 121.114 18.3528 110.775 16.5414 99.8781C14.73 88.981 15.4349 77.8139 18.602 67.231C21.7692 56.6481 27.3148 46.9297 34.8146 38.8191C42.3145 30.7086 51.5699 24.4207 61.873 20.4365L59.7009 14.8195Z" fill="#00B6FF"/>
<path d="M150.863 41.0478C140.235 26.8189 125.095 16.6165 107.917 12.1083C90.7391 7.60015 72.5399 9.05305 56.2948 16.2295L58.7284 21.7382C73.7266 15.1126 90.5289 13.7712 106.388 17.9334C122.248 22.0955 136.226 31.5149 146.038 44.6516L150.863 41.0478Z" fill="#FF8B00"/>
<path d="M143.481 143.481C156.864 130.097 164.959 112.327 166.272 93.4462C167.586 74.5651 162.031 55.8454 150.63 40.7376L145.823 44.3652C156.348 58.3134 161.478 75.5963 160.265 93.0282C159.052 110.46 151.578 126.866 139.222 139.222L143.481 143.481Z" fill="#0019F8"/>
<path d="M59.0812 160.938C74.6951 167.128 91.8835 168.145 108.118 163.838C124.353 159.532 138.778 150.129 149.27 137.013L144.567 133.251C134.88 145.36 121.563 154.041 106.574 158.017C91.5855 161.993 75.7163 161.055 61.3009 155.339L59.0812 160.938Z" fill="#D00BF0"/>
<path d="M23.5843 132.797C33.2853 146.747 47.2522 157.17 63.3853 162.5L65.2747 156.782C50.3798 151.861 37.4849 142.238 28.5286 129.359L23.5843 132.797Z" fill="white"/>
</svg>
