<svg width="20" height="20" viewBox="0 0 20 20" fill="none" xmlns="http://www.w3.org/2000/svg">
<path d="M19.8999 17.7533L19.6732 17.5534C19.0302 16.9804 18.4673 16.3234 17.9999 15.6C17.4894 14.6017 17.1834 13.5115 17.0999 12.3934V9.10002C17.0972 8.69998 17.0615 8.30085 16.9932 7.90668C15.8639 7.67457 14.8496 7.05936 14.1219 6.1652C13.3942 5.27104 12.9978 4.15288 12.9999 3.00002V2.58002C12.3038 2.23748 11.556 2.01222 10.7865 1.91335V1.07335C10.7865 0.837307 10.6928 0.610932 10.5259 0.444025C10.359 0.277117 10.1326 0.18335 9.89654 0.18335C9.66049 0.18335 9.43412 0.277117 9.26721 0.444025C9.1003 0.610932 9.00654 0.837307 9.00654 1.07335V1.94668C7.28368 2.18972 5.70692 3.04785 4.56735 4.36264C3.42778 5.67743 2.80236 7.36011 2.80654 9.10002V12.3934C2.72304 13.5115 2.41705 14.6017 1.90654 15.6C1.44712 16.3216 0.893333 16.9785 0.25987 17.5534L0.0332031 17.7533V19.6334H19.8999V17.7533Z" fill="white" fill-opacity="0.4"/>
</svg>
